<?xml version="1.0" encoding="utf-8"?>
<svg xmlns="http://www.w3.org/2000/svg" viewBox="0 0 500 500" xmlns:bx="https://boxy-svg.com" width="500px" height="500px"><defs><style>@import url(https://fonts.googleapis.com/css2?family=Amiko%3Aital%2Cwght%400%2C400%3B0%2C600%3B0%2C700&amp;display=swap);</style></defs><g><title>pixiv2epub</title><g transform="matrix(1, 0, 0, 1, 0.000515, 13.665504)"><title>本</title><ellipse style="stroke-width: 4px; stroke: rgb(85, 89, 93); fill: rgb(85, 89, 93);" cx="250" cy="353.753" rx="24.012" ry="10.316"><title>背表紙</title></ellipse><path style="stroke-linejoin: round; stroke-width: 13; stroke: rgb(85, 89, 93); fill: rgb(255, 255, 255);" d="M 39.829 146.265 L 39.491 349.863 C 71.374 332.017 183.168 316.04 250.191 359.333 L 249.516 155.059 C 247.002 112.951 38.896 130.644 39.829 146.265 Z"><title>ページ下</title></path><path style="stroke-linejoin: round; stroke-width: 13; stroke: rgb(85, 89, 93); fill: rgb(255, 255, 255);" d="M 250.146 341.968 L 249.808 138.37 C 281.691 156.216 393.485 172.193 460.508 128.9 L 459.833 333.174 C 457.319 375.282 249.213 357.589 250.146 341.968 Z" transform="matrix(-1, 0, 0, -1, 710.315961, 488.244635)"><title>ページ下</title></path><path style="stroke-linecap: round; stroke-linejoin: round; stroke-width: 13; stroke: rgb(85, 89, 93); fill: rgb(0, 150, 250);" d="M 249.854 141.53 C 225.005 117.228 125.513 96.304 61.475 117.179 L 61.476 315.367 C 140.852 299.203 196.36 308.189 249.517 345.467 L 249.854 141.53 Z"><title>ページ上</title></path><path style="stroke-linecap: round; stroke-linejoin: round; stroke-width: 13; stroke: rgb(85, 89, 93); fill: rgb(134, 185, 24);" d="M 437.759 312.537 C 412.91 336.839 313.418 357.763 249.38 336.888 L 249.381 138.7 C 328.757 154.864 384.265 145.878 437.422 108.6 L 437.759 312.537 Z" transform="matrix(-1, 0, 0, -1, 687.139034, 454.04084)"><title>ページ上</title></path><path d="M 98.375 190.711 L 104.76 200.846 C 104.76 200.846 108.292 201.143 106.421 195.172 C 108.036 192.121 111.197 188.013 117.369 183.271 L 117.369 250.791 C 114.708 251.541 111.193 252.951 113.59 255.352 L 131.93 255.352 C 134.35 252.928 130.537 251.47 128.213 250.791 L 128.213 234.862 C 128.213 234.862 140.787 239.798 154.343 239.798 C 166.254 239.798 177.091 236.255 185.151 229.853 C 193.213 223.485 198.405 213.982 198.375 203.115 C 198.398 192.449 193.834 182.659 185.975 175.82 C 178.121 168.956 167.124 164.995 154.343 164.995 C 121.032 164.995 98.375 190.711 98.375 190.711 M 128.213 228.63 L 128.213 214.122 L 128.213 177.976 C 134.574 173.454 144.892 170.669 153.224 170.686 C 163.346 170.694 171.295 174.519 176.668 180.325 C 182.036 186.166 184.965 193.925 184.992 202.945 C 184.959 211.733 181.828 218.97 176.253 224.523 C 170.68 230.029 162.574 233.508 153.224 233.502 C 153.21 233.502 153.193 233.502 153.179 233.502 C 153.178 233.502 153.177 233.502 153.177 233.502 C 142.766 233.502 134.003 231.483 128.213 228.63" style="stroke-width: 1; fill: rgb(255, 255, 255);"><title>pixiv</title></path><path d="M 346.8 242.627 L 315.376 211.201 L 346.8 179.779 L 357.275 190.253 L 336.324 211.201 L 346.799 221.676 L 378.223 190.254 L 350.849 162.881 C 348.614 160.643 344.988 160.643 342.751 162.881 L 298.476 207.155 C 296.241 209.39 296.241 213.016 298.476 215.253 L 342.751 259.526 C 344.988 261.763 348.614 261.763 350.849 259.526 L 395.123 215.253 C 397.359 213.016 397.359 209.39 395.123 207.155 L 388.696 200.73 L 346.8 242.627 Z" style="stroke-width: 1; fill: rgb(255, 255, 255);"><title>eoub</title></path><g transform="matrix(1, 0, 0, 1, 0, -28)"><title>arrow</title><rect x="221.584" y="242.898" width="44.643" height="14.205" style="stroke: rgb(255, 255, 255); fill: rgb(255, 255, 255);"/><path d="M 300.008 147.414 L 318.44 169.398 L 281.576 169.398 L 300.008 147.414 Z" style="fill: rgb(255, 255, 255); stroke: rgb(255, 255, 255);" transform="matrix(0, 1, -1, 0, 427.168831, -50.007996)"/></g></g><path d="M 49.84 412.13 L 57.66 412.13 Q 62.55 412.13 64.97 414.12 Q 67.38 416.11 67.38 419.88 Q 67.38 423.69 65 425.8 Q 62.62 427.9 58.07 427.9 L 54.33 427.9 L 54.33 435.79 L 49.84 435.79 Z M 57.69 423.99 Q 60.24 423.99 61.45 423.08 Q 62.66 422.16 62.66 419.98 Q 62.66 417.87 61.47 416.99 Q 60.28 416.11 57.66 416.11 L 54.33 416.11 L 54.33 423.99 Z M 73.53 415.39 Q 72.38 415.39 71.56 414.61 Q 70.75 413.83 70.75 412.57 Q 70.75 411.31 71.56 410.53 Q 72.38 409.75 73.53 409.75 Q 74.69 409.75 75.51 410.53 Q 76.32 411.31 76.32 412.57 Q 76.32 413.83 75.51 414.61 Q 74.69 415.39 73.53 415.39 Z M 75.78 418.04 L 75.78 435.79 L 71.29 435.79 L 71.29 418.08 Z M 92.57 435.79 L 87.61 429.4 L 82.81 435.79 L 78.09 435.79 L 85.29 426.41 L 78.83 418.04 L 83.8 418.04 L 88.01 423.48 L 92.06 418.04 L 96.79 418.04 L 90.33 426.48 L 97.53 435.79 Z M 102.1 415.39 Q 100.94 415.39 100.12 414.61 Q 99.31 413.83 99.31 412.57 Q 99.31 411.31 100.12 410.53 Q 100.94 409.75 102.1 409.75 Q 103.25 409.75 104.07 410.53 Q 104.88 411.31 104.88 412.57 Q 104.88 413.83 104.07 414.61 Q 103.25 415.39 102.1 415.39 Z M 104.34 418.04 L 104.34 435.79 L 99.85 435.79 L 99.85 418.08 Z M 125.72 418.04 L 119.16 435.79 L 113.58 435.79 L 107.02 418.04 L 111.58 418.04 L 116.44 432.05 L 121.3 418.04 Z M 143.4 418.04 L 147.48 418.04 L 147.48 421.38 L 143.4 421.38 L 143.4 429.94 Q 143.4 432.53 145.38 432.53 Q 146.29 432.53 147.52 431.88 L 147.52 435.59 Q 146.67 435.89 145.94 436.05 Q 145.21 436.2 144.29 436.2 Q 138.92 436.2 138.92 429.94 L 138.92 421.38 L 136.33 421.38 L 136.33 418.04 L 138.92 418.04 L 138.92 413.28 L 143.4 411.72 Z M 159.9 436.2 Q 157.21 436.2 155.17 435.06 Q 153.13 433.92 152.02 431.81 Q 150.92 429.71 150.92 426.92 Q 150.92 424.13 152.02 422.02 Q 153.13 419.91 155.17 418.78 Q 157.21 417.64 159.9 417.64 Q 162.58 417.64 164.62 418.78 Q 166.66 419.91 167.77 422.02 Q 168.87 424.13 168.87 426.92 Q 168.87 429.71 167.77 431.81 Q 166.66 433.92 164.62 435.06 Q 162.58 436.2 159.9 436.2 Z M 159.9 432.49 Q 161.9 432.49 163.02 431.05 Q 164.15 429.6 164.15 426.92 Q 164.15 424.2 163.02 422.77 Q 161.9 421.34 159.9 421.34 Q 157.89 421.34 156.77 422.77 Q 155.65 424.2 155.65 426.92 Q 155.65 429.6 156.77 431.05 Q 157.89 432.49 159.9 432.49 Z M 188.28 416.07 L 188.28 421.99 L 198.48 421.99 L 198.48 425.69 L 188.28 425.69 L 188.28 431.85 L 199.23 431.85 L 199.23 435.79 L 183.79 435.79 L 183.79 412.13 L 199.23 412.13 L 199.23 416.07 Z M 205.56 412.13 L 213.38 412.13 Q 218.27 412.13 220.69 414.12 Q 223.1 416.11 223.1 419.88 Q 223.1 423.69 220.72 425.8 Q 218.34 427.9 213.78 427.9 L 210.04 427.9 L 210.04 435.79 L 205.56 435.79 Z M 213.41 423.99 Q 215.96 423.99 217.17 423.08 Q 218.37 422.16 218.37 419.98 Q 218.37 417.87 217.18 416.99 Q 215.99 416.11 213.38 416.11 L 210.04 416.11 L 210.04 423.99 Z M 237.75 436.2 Q 233.03 436.2 230.34 433.48 Q 227.65 430.76 227.65 426 L 227.65 412.13 L 232.14 412.13 L 232.14 425.9 Q 232.14 429.16 233.6 430.71 Q 235.07 432.26 237.75 432.26 Q 240.47 432.26 241.92 430.68 Q 243.36 429.09 243.36 425.9 L 243.36 412.13 L 247.85 412.13 L 247.85 426 Q 247.85 430.76 245.16 433.48 Q 242.48 436.2 237.75 436.2 Z M 268.66 423.48 Q 270.5 424.27 271.45 425.69 Q 272.4 427.12 272.4 429.16 Q 272.4 432.39 270.06 434.09 Q 267.71 435.79 263.26 435.79 L 254.52 435.79 L 254.52 412.13 L 263.66 412.13 Q 267.51 412.13 269.58 413.74 Q 271.65 415.36 271.65 418.35 Q 271.65 421.92 268.66 423.48 Z M 259.01 416.07 L 259.01 421.72 L 263.26 421.72 Q 265.09 421.72 266.01 420.97 Q 266.93 420.22 266.93 418.79 Q 266.93 417.23 266.13 416.65 Q 265.33 416.07 263.29 416.07 Z M 263.26 431.81 Q 265.67 431.81 266.67 431.12 Q 267.68 430.42 267.68 428.72 Q 267.68 427.12 266.6 426.37 Q 265.53 425.63 263.29 425.63 L 259.01 425.63 L 259.01 431.81 L 263.26 431.81 Z M 299.5 436.2 Q 295.59 436.2 292.78 434.7 Q 289.98 433.21 288.5 430.44 Q 287.02 427.67 287.02 423.96 Q 287.02 420.25 288.52 417.48 Q 290.01 414.71 292.87 413.22 Q 295.73 411.72 299.7 411.72 Q 301.37 411.72 302.98 412.04 Q 304.6 412.37 305.89 413.01 L 305.89 417.16 L 305.76 417.16 Q 304.46 416.41 302.95 416.04 Q 301.44 415.66 300.08 415.66 Q 296.2 415.66 293.97 417.81 Q 291.75 419.95 291.75 423.96 Q 291.75 427.94 293.92 430.08 Q 296.1 432.22 299.87 432.22 Q 301.34 432.22 302.85 431.76 Q 304.36 431.3 305.76 430.45 L 305.89 430.45 L 305.89 434.64 Q 303.17 436.2 299.5 436.2 Z M 319.69 436.2 Q 317.01 436.2 314.97 435.06 Q 312.93 433.92 311.82 431.81 Q 310.72 429.71 310.72 426.92 Q 310.72 424.13 311.82 422.02 Q 312.93 419.91 314.97 418.78 Q 317.01 417.64 319.69 417.64 Q 322.38 417.64 324.42 418.78 Q 326.46 419.91 327.56 422.02 Q 328.67 424.13 328.67 426.92 Q 328.67 429.71 327.56 431.81 Q 326.46 433.92 324.42 435.06 Q 322.38 436.2 319.69 436.2 Z M 319.69 432.49 Q 321.7 432.49 322.82 431.05 Q 323.94 429.6 323.94 426.92 Q 323.94 424.2 322.82 422.77 Q 321.7 421.34 319.69 421.34 Q 317.69 421.34 316.56 422.77 Q 315.44 424.2 315.44 426.92 Q 315.44 429.6 316.56 431.05 Q 317.69 432.49 319.69 432.49 Z M 343.32 417.64 Q 346.01 417.64 347.66 419.22 Q 349.3 420.8 349.3 423.38 L 349.3 435.79 L 344.82 435.79 L 344.82 425.93 Q 344.82 423.62 344.12 422.62 Q 343.42 421.61 341.82 421.61 Q 340.06 421.61 338.08 423.59 L 338.08 435.79 L 333.6 435.79 L 333.6 421.99 L 332.85 418.04 L 336.96 418.04 L 337.61 420.32 Q 339.07 418.89 340.43 418.27 Q 341.79 417.64 343.32 417.64 Z M 371.21 418.04 L 364.64 435.79 L 359.07 435.79 L 352.51 418.04 L 357.06 418.04 L 361.92 432.05 L 366.79 418.04 Z M 389.4 428.28 L 377.05 428.28 Q 377.33 430.32 378.57 431.41 Q 379.81 432.49 381.88 432.49 Q 383.41 432.49 385.2 431.93 Q 386.98 431.37 388.51 430.39 L 388.65 430.39 L 388.65 434.02 Q 387.29 435.08 385.54 435.64 Q 383.79 436.2 381.85 436.2 Q 379.06 436.2 376.99 435.08 Q 374.91 433.96 373.79 431.85 Q 372.67 429.74 372.67 426.92 Q 372.67 424.16 373.74 422.06 Q 374.81 419.95 376.75 418.79 Q 378.69 417.64 381.24 417.64 Q 383.72 417.64 385.57 418.76 Q 387.42 419.88 388.41 421.99 Q 389.4 424.1 389.4 426.92 Z M 381.24 421.24 Q 379.64 421.24 378.57 422.29 Q 377.5 423.35 377.12 425.22 L 384.77 425.22 Q 384.5 423.28 383.62 422.26 Q 382.73 421.24 381.24 421.24 Z M 403.57 417.64 L 403.57 422.06 L 402.99 422.06 Q 400.34 422.06 398.68 423.52 L 398.68 435.79 L 394.19 435.79 L 394.19 421.99 L 393.44 418.04 L 397.93 418.04 L 398.37 420.39 Q 399.49 418.86 400.41 418.25 Q 401.33 417.64 402.45 417.64 Z M 413.37 418.04 L 417.45 418.04 L 417.45 421.38 L 413.37 421.38 L 413.37 429.94 Q 413.37 432.53 415.34 432.53 Q 416.26 432.53 417.48 431.88 L 417.48 435.59 Q 416.63 435.89 415.9 436.05 Q 415.17 436.2 414.25 436.2 Q 408.88 436.2 408.88 429.94 L 408.88 421.38 L 406.29 421.38 L 406.29 418.04 L 408.88 418.04 L 408.88 413.28 L 413.37 411.72 Z M 437.67 428.28 L 425.33 428.28 Q 425.6 430.32 426.84 431.41 Q 428.08 432.49 430.15 432.49 Q 431.68 432.49 433.47 431.93 Q 435.25 431.37 436.78 430.39 L 436.92 430.39 L 436.92 434.02 Q 435.56 435.08 433.81 435.64 Q 432.06 436.2 430.12 436.2 Q 427.33 436.2 425.26 435.08 Q 423.18 433.96 422.06 431.85 Q 420.94 429.74 420.94 426.92 Q 420.94 424.16 422.01 422.06 Q 423.08 419.95 425.02 418.79 Q 426.96 417.64 429.51 417.64 Q 431.99 417.64 433.84 418.76 Q 435.7 419.88 436.68 421.99 Q 437.67 424.1 437.67 426.92 Z M 429.51 421.24 Q 427.91 421.24 426.84 422.29 Q 425.77 423.35 425.39 425.22 L 433.04 425.22 Q 432.77 423.28 431.89 422.26 Q 431 421.24 429.51 421.24 Z M 451.85 417.64 L 451.85 422.06 L 451.28 422.06 Q 448.62 422.06 446.96 423.52 L 446.96 435.79 L 442.47 435.79 L 442.47 421.99 L 441.72 418.04 L 446.21 418.04 L 446.65 420.39 Q 447.77 418.86 448.69 418.25 Q 449.61 417.64 450.73 417.64 Z" style="fill: rgb(85, 89, 93); text-wrap-mode: nowrap;"/></g></svg>