<?xml version="1.0" encoding="utf-8"?>
<svg xmlns="http://www.w3.org/2000/svg" viewBox="0 0 500 200" width="400px" height="160px">
  <g transform="matrix(1.016586, 0, 0, 1.016586, 0.940449, -155.070729)" id="object-0">
    <title>pixiv2epub</title>
    <g transform="matrix(0.481313, 0, 0, 0.481313, 3.534532, 137.144657)" id="object-1">
      <title>本</title>
      <ellipse style="stroke-width: 4px; stroke: rgb(85, 89, 93); fill: rgb(85, 89, 93);" cx="250" cy="353.753" rx="24.012" ry="10.316">
        <title>背表紙</title>
      </ellipse>
      <path style="stroke-linejoin: round; stroke-width: 13; stroke: rgb(85, 89, 93); fill: rgb(255, 255, 255);" d="M 39.829 146.265 L 39.491 349.863 C 71.374 332.017 183.168 316.04 250.191 359.333 L 249.516 155.059 C 247.002 112.951 38.896 130.644 39.829 146.265 Z">
        <title>ページ下　左</title>
      </path>
      <path style="stroke-linejoin: round; stroke-width: 13; stroke: rgb(85, 89, 93); fill: rgb(255, 255, 255);" d="M 250.146 341.968 L 249.808 138.37 C 281.691 156.216 393.485 172.193 460.508 128.9 L 459.833 333.174 C 457.319 375.282 249.213 357.589 250.146 341.968 Z" transform="matrix(-1, 0, 0, -1, 710.315961, 488.244635)">
        <title>ページ下　右</title>
      </path>
      <path style="stroke-linecap: round; stroke-linejoin: round; stroke-width: 13; stroke: rgb(85, 89, 93); fill: rgb(0, 150, 250);" d="M 249.854 141.53 C 225.005 117.228 125.513 96.304 61.475 117.179 L 61.476 315.367 C 140.852 299.203 196.36 308.189 249.517 345.467 L 249.854 141.53 Z">
        <title>ページ上　左</title>
      </path>
      <path style="stroke-linecap: round; stroke-linejoin: round; stroke-width: 13; stroke: rgb(85, 89, 93); fill: rgb(134, 185, 24);" d="M 437.759 312.537 C 412.91 336.839 313.418 357.763 249.38 336.888 L 249.381 138.7 C 328.757 154.864 384.265 145.878 437.422 108.6 L 437.759 312.537 Z" transform="matrix(-1, 0, 0, -1, 687.139034, 454.04084)">
        <title>ページ上　右</title>
      </path>
      <path d="M 98.375 190.711 L 104.76 200.846 C 104.76 200.846 108.292 201.143 106.421 195.172 C 108.036 192.121 111.197 188.013 117.369 183.271 L 117.369 250.791 C 114.708 251.541 111.193 252.951 113.59 255.352 L 131.93 255.352 C 134.35 252.928 130.537 251.47 128.213 250.791 L 128.213 234.862 C 128.213 234.862 140.787 239.798 154.343 239.798 C 166.254 239.798 177.091 236.255 185.151 229.853 C 193.213 223.485 198.405 213.982 198.375 203.115 C 198.398 192.449 193.834 182.659 185.975 175.82 C 178.121 168.956 167.124 164.995 154.343 164.995 C 121.032 164.995 98.375 190.711 98.375 190.711 M 128.213 228.63 L 128.213 214.122 L 128.213 177.976 C 134.574 173.454 144.892 170.669 153.224 170.686 C 163.346 170.694 171.295 174.519 176.668 180.325 C 182.036 186.166 184.965 193.925 184.992 202.945 C 184.959 211.733 181.828 218.97 176.253 224.523 C 170.68 230.029 162.574 233.508 153.224 233.502 C 153.21 233.502 153.193 233.502 153.179 233.502 C 153.178 233.502 153.177 233.502 153.177 233.502 C 142.766 233.502 134.003 231.483 128.213 228.63" style="stroke-width: 1; fill: rgb(255, 255, 255);">
        <title>pixiv</title>
      </path>
      <path d="M 346.8 242.627 L 315.376 211.201 L 346.8 179.779 L 357.275 190.253 L 336.324 211.201 L 346.799 221.676 L 378.223 190.254 L 350.849 162.881 C 348.614 160.643 344.988 160.643 342.751 162.881 L 298.476 207.155 C 296.241 209.39 296.241 213.016 298.476 215.253 L 342.751 259.526 C 344.988 261.763 348.614 261.763 350.849 259.526 L 395.123 215.253 C 397.359 213.016 397.359 209.39 395.123 207.155 L 388.696 200.73 L 346.8 242.627 Z" style="stroke-width: 1; fill: rgb(255, 255, 255);">
        <title>eoub</title>
      </path>
      <g transform="matrix(1.335318, 0, 0, 1.020532, -82.566935, -37.951749)" style="">
        <title>arrow</title>
        <rect x="221.584" y="240.495" width="44.643" height="14.205" style="stroke: rgb(255, 255, 255); fill: rgb(255, 255, 255);"/>
        <path d="M 267.148 235.328 L 278.981 259.866 L 255.314 259.866 L 267.148 235.328 Z" style="fill: rgb(255, 255, 255); stroke: rgb(255, 255, 255); transform-box: fill-box; transform-origin: 50% 50%;" transform="matrix(0, 1.308453, -0.764261, 0, 0, 0.000009)"/>
      </g>
    </g>
    <text style="fill: rgb(51, 51, 51); font-family: &quot;Bauhaus 93&quot;; font-size: 108.8px; text-anchor: middle; white-space: pre;" id="object-2"><title>piep</title><tspan style="fill: rgb(0, 150, 250);" x="358.57" y="287.106">pi</tspan><tspan style="fill: rgb(134, 185, 24);">ep</tspan></text>
  </g>
</svg>